<svg width="155" height="253" viewBox="0 0 155 253" fill="none" xmlns="http://www.w3.org/2000/svg">
<mask id="mask0_0_7" style="mask-type:alpha" maskUnits="userSpaceOnUse" x="28" y="0" width="161" height="195">
<path d="M28.3075 0H188.001V194.789H28.3075V0Z" fill="white"/>
</mask>
<g mask="url(#mask0_0_7)">
<path fill-rule="evenodd" clip-rule="evenodd" d="M154.409 190.425C183.454 170.495 189.472 134.274 187.724 101.831C187.433 96.414 187.959 90.6942 185.154 85.9812C182.345 81.273 175.939 78.1259 170.86 80.4918C166.647 82.4559 164.879 87.1653 162.572 91.0747C159.505 96.2769 154.871 100.615 149.376 103.429C145.766 105.279 141.281 106.446 137.65 104.625C132.672 102.127 131.976 95.6801 131.914 90.2876C131.798 80.2425 131.683 70.1973 131.57 60.1521C131.508 54.7632 131.426 49.2608 129.564 44.1744C127.703 39.0869 123.708 34.4011 118.27 33.0515C112.833 31.7019 106.196 34.7651 105.147 40.0595C104.711 42.2623 105.224 44.5337 105.106 46.7732C104.988 49.0126 103.933 51.505 101.701 52.1645C99.4404 52.8334 97.1383 51.3431 95.4086 49.7914C89.4396 44.4462 85.329 37.5009 81.4809 30.5898C77.6316 23.6788 73.8884 16.6011 68.4531 10.7501C63.0215 4.9026 55.5677 0.318458 47.4116 0.0123759C39.2567 -0.291342 30.6619 4.61069 28.741 12.2202C26.8125 19.8533 31.628 27.4853 36.8321 33.5537C44.5496 42.5566 53.6306 50.4828 63.6989 57.0003C65.5136 58.1786 67.482 59.449 68.2044 61.4344C69.5029 65.0081 65.9735 68.6338 62.2516 69.8747C58.0336 71.2822 53.4281 70.9383 49.0001 71.5055C44.5721 72.0728 39.8016 74.0038 38.1944 78.0018C35.9648 83.5479 40.9302 89.2429 45.7819 92.9478C55.5015 100.366 66.5497 106.171 78.2939 110.032C82.5032 111.416 86.93 112.617 90.3544 115.35C93.7801 118.08 95.9035 122.889 93.9326 126.718C91.9617 130.553 86.75 131.851 82.3545 131.15C77.959 130.452 73.9922 128.261 69.7891 126.837C61.9217 124.166 51.8346 124.839 46.9429 131.321C43.7272 135.581 43.5423 141.446 45.297 146.433C47.0504 151.422 50.5036 155.686 54.1617 159.615C66.9433 173.339 83.1844 184.29 101.426 189.953C119.666 195.618 136.499 196.96 154.409 190.425Z" fill="#F3AF47"/>
<path fill-rule="evenodd" clip-rule="evenodd" d="M157.203 239.662C157.748 232.427 157.343 228.359 155.842 215.437C154.375 202.52 151.134 187.29 145.781 170.906C140.46 154.509 133.068 136.995 124.68 118.931C122.564 114.425 120.477 109.97 118.417 105.579C116.35 101.202 114.3 96.8601 112.022 92.7321C107.503 84.4561 102.498 76.8288 97.5093 69.731C92.5238 62.6273 87.5209 56.0578 82.7967 49.9515C78.0563 43.8524 73.5258 38.246 69.1702 33.3049C60.4842 23.3874 52.5055 16.1951 46.814 11.4715C43.9745 9.10084 41.7098 7.33053 40.1551 6.15111L38.3816 4.81806C37.978 4.52261 37.7667 4.37843 37.7542 4.39143C37.7417 4.40679 37.9317 4.57697 38.3154 4.89842C38.7391 5.24822 39.3065 5.71385 40.0226 6.30592C41.5324 7.53852 43.7545 9.35374 46.549 11.7658C52.1481 16.5756 60.018 23.8199 68.6053 33.7635C72.9159 38.7199 77.4001 44.3393 82.1031 50.4526C86.7935 56.5778 91.764 63.1521 96.7156 70.2498C101.669 77.3453 106.639 84.9548 111.119 93.1918C113.38 97.302 115.405 101.606 117.475 105.996C119.529 110.384 121.615 114.839 123.729 119.342C132.11 137.39 139.511 154.85 144.868 171.185C150.254 187.505 153.554 202.656 155.11 215.516C156.699 228.382 157.218 232.408 156.797 239.634" fill="#263238"/>
<path fill-rule="evenodd" clip-rule="evenodd" d="M110.222 90.7574C110.283 90.7692 110.437 89.9443 110.666 88.4435C110.902 86.9473 111.176 84.7681 111.479 82.0713C112.091 76.6812 112.704 69.204 113.35 60.9587C113.998 52.7075 114.705 45.2611 115.388 39.8958C115.725 37.2131 116.016 35.0422 116.234 33.5461C116.446 32.0476 116.534 31.2097 116.471 31.1955C116.411 31.1813 116.209 31.992 115.89 33.4692C115.564 34.9465 115.176 37.1056 114.76 39.7859C113.91 45.1441 113.098 52.6082 112.452 60.8677C111.832 69.0067 111.273 76.3692 110.843 81.9956C110.636 84.5365 110.46 86.6779 110.317 88.395C110.197 89.9053 110.16 90.7467 110.222 90.7574Z" fill="#263238"/>
<path fill-rule="evenodd" clip-rule="evenodd" d="M37.7542 78.9495C37.7529 79.0181 38.7827 79.115 40.6399 79.2331C42.4946 79.3631 45.1804 79.5345 48.4924 79.8477C55.1188 80.4267 64.2397 81.5329 74.2518 83.1791C84.2614 84.8407 93.2536 86.7174 99.7151 88.2537C102.955 89.0006 105.558 89.6718 107.363 90.1268C109.162 90.5877 110.168 90.8123 110.192 90.7449C110.212 90.6787 109.243 90.3289 107.473 89.751C105.702 89.1802 103.121 88.4038 99.8963 87.5647C93.4611 85.8464 84.4613 83.8539 74.4218 82.1852C64.3822 80.5367 55.21 79.538 48.5486 79.1398C45.2204 78.9152 42.5196 78.8502 40.6537 78.8443C38.7865 78.8455 37.7554 78.8798 37.7542 78.9495ZM144.843 168.187C144.878 168.201 145.037 167.905 145.321 167.332L146.507 164.798C147.525 162.591 148.914 159.364 150.574 155.355C153.904 147.337 158.139 136.122 162.641 123.688C167.148 111.248 171.269 100.009 174.419 91.9373C175.964 88.0103 177.235 84.784 178.181 82.3838L179.188 79.7791C179.407 79.18 179.507 78.8585 179.475 78.8443C179.439 78.8325 179.277 79.1256 178.996 79.7011L177.812 82.2337C176.792 84.4365 175.404 87.6675 173.741 91.6761C170.413 99.6922 166.179 110.907 161.673 123.348C157.17 135.785 153.047 147.023 149.898 155.097C148.352 159.018 147.082 162.25 146.139 164.645C145.734 165.688 145.404 166.548 145.13 167.252C144.91 167.852 144.81 168.172 144.843 168.187Z" fill="#263238"/>
<path fill-rule="evenodd" clip-rule="evenodd" d="M47.2027 138.417C47.1939 138.453 47.5276 138.583 48.1738 138.8C48.9361 139.042 49.8735 139.339 51.0095 139.702L61.4653 142.906C70.2938 145.615 82.443 149.498 95.8621 153.803C109.286 158.114 121.485 161.886 130.369 164.412C134.813 165.676 138.417 166.663 140.921 167.294C142.082 167.578 143.035 167.811 143.812 168.003C144.474 168.153 144.828 168.216 144.836 168.178C144.846 168.143 144.511 168.014 143.867 167.795L141.032 166.896L130.577 163.692C121.749 160.982 109.597 157.1 96.1745 152.791C82.7555 148.483 70.5588 144.71 61.6715 142.185C57.2298 140.919 53.6254 139.933 51.1183 139.301L48.2288 138.592C47.5664 138.443 47.2139 138.382 47.2027 138.417Z" fill="#263238"/>
</g>
<mask id="mask1_0_7" style="mask-type:alpha" maskUnits="userSpaceOnUse" x="0" y="117" width="179" height="172">
<path d="M81.3681 117.532L-6.28765e-05 183.783L96.919 288.21L178.287 221.959L81.3681 117.532Z" fill="white"/>
</mask>
<g mask="url(#mask1_0_7)">
<path fill-rule="evenodd" clip-rule="evenodd" d="M161.152 230.156C163.721 207.221 146.88 185.678 128.515 169.458C125.451 166.752 122.595 163.53 118.755 162.273C114.913 161.02 110.264 162.131 109.21 165.558C108.332 168.398 110.07 171.623 111.127 174.664C112.533 178.706 112.75 182.971 111.745 186.809C111.087 189.331 109.655 191.874 107 192.483C103.358 193.321 99.5476 190.248 96.6022 187.456C91.1088 182.247 85.617 177.043 80.1297 171.836C77.1834 169.045 74.1662 166.199 70.5575 164.341C66.9479 162.482 62.5738 161.749 59.3421 163.384C56.1121 165.021 54.7179 169.483 57.1007 172.703C58.094 174.044 59.5578 175.012 60.717 176.235C61.8754 177.457 62.7392 179.214 62.0673 180.521C61.3919 181.844 59.5255 182.056 57.891 181.989C52.2513 181.763 46.6013 179.899 41.0926 177.941C35.5786 175.981 30.0263 173.891 24.362 173.17C18.6951 172.45 12.7872 173.266 8.87149 176.615C4.95489 179.969 3.65656 186.233 6.8912 191.042C10.1372 195.865 16.4848 197.784 22.1627 198.72C30.5832 200.105 39.0521 200.342 47.2119 199.416C48.6837 199.251 50.274 199.068 51.683 199.798C54.2154 201.107 54.5558 204.522 53.5159 206.776C52.337 209.328 50.0297 211.132 48.3036 213.335C46.5714 215.537 45.4241 218.601 46.8505 221.387C48.8273 225.249 54.1925 226.09 58.4314 225.937C66.9144 225.634 75.1386 223.915 82.6307 220.877C85.3154 219.788 87.9996 218.509 91.0533 218.462C94.1088 218.417 97.689 220.018 98.8533 222.869C100.024 225.724 98.3315 228.649 95.9291 230.175C93.5284 231.705 90.5203 232.264 87.8145 233.33C82.7521 235.321 78.4774 240.016 79.7353 245.513C80.5634 249.129 83.6528 252.275 87.1607 254.129C90.6652 255.984 94.5642 256.727 98.3707 257.209C111.677 258.883 125.076 257.62 136.532 252.727C147.987 247.835 156.453 241.287 161.152 230.156Z" fill="#E8505B"/>
</g>
<mask id="mask2_0_7" style="mask-type:alpha" maskUnits="userSpaceOnUse" x="0" y="117" width="179" height="172">
<path d="M81.3681 117.532L-6.28765e-05 183.783L96.919 288.21L178.287 221.959L81.3681 117.532Z" fill="white"/>
</mask>
<g mask="url(#mask2_0_7)">
<path fill-rule="evenodd" clip-rule="evenodd" d="M161.152 230.156C163.721 207.221 146.88 185.678 128.515 169.458C125.451 166.752 122.595 163.53 118.755 162.273C114.913 161.02 110.264 162.131 109.21 165.558C108.332 168.398 110.07 171.623 111.127 174.664C112.533 178.706 112.75 182.971 111.745 186.809C111.087 189.331 109.655 191.874 107 192.483C103.358 193.321 99.5476 190.248 96.6022 187.456C91.1088 182.247 85.617 177.043 80.1297 171.836C77.1834 169.045 74.1662 166.199 70.5575 164.341C66.9479 162.482 62.5738 161.749 59.3421 163.384C56.1121 165.021 54.7179 169.483 57.1007 172.703C58.094 174.044 59.5578 175.012 60.717 176.235C61.8754 177.457 62.7392 179.214 62.0673 180.521C61.3919 181.844 59.5255 182.056 57.891 181.989C52.2513 181.763 46.6013 179.899 41.0926 177.941C35.5786 175.981 30.0263 173.891 24.362 173.17C18.6951 172.45 12.7872 173.266 8.87149 176.615C4.95489 179.969 3.65656 186.233 6.8912 191.042C10.1372 195.865 16.4848 197.784 22.1627 198.72C30.5832 200.105 39.0521 200.342 47.2119 199.416C48.6837 199.251 50.274 199.068 51.683 199.798C54.2154 201.107 54.5558 204.522 53.5159 206.776C52.337 209.328 50.0297 211.132 48.3036 213.335C46.5714 215.537 45.4241 218.601 46.8505 221.387C48.8273 225.249 54.1925 226.09 58.4314 225.937C66.9144 225.634 75.1386 223.915 82.6307 220.877C85.3154 219.788 87.9996 218.509 91.0533 218.462C94.1088 218.417 97.689 220.018 98.8533 222.869C100.024 225.724 98.3315 228.649 95.9291 230.175C93.5284 231.705 90.5203 232.264 87.8145 233.33C82.7521 235.321 78.4774 240.016 79.7353 245.513C80.5634 249.129 83.6528 252.275 87.1607 254.129C90.6652 255.984 94.5642 256.727 98.3707 257.209C111.677 258.883 125.076 257.62 136.532 252.727C147.987 247.835 156.453 241.287 161.152 230.156Z" fill="#F8CD99"/>
<mask id="mask3_0_7" style="mask-type:alpha" maskUnits="userSpaceOnUse" x="4" y="132" width="190" height="187">
<path d="M69.2679 132.124L4.59763 184.833L128.557 318.53L193.227 265.822L69.2679 132.124Z" fill="white"/>
</mask>
<g mask="url(#mask3_0_7)">
<path fill-rule="evenodd" clip-rule="evenodd" d="M4.59778 184.833C4.60208 184.845 4.77976 184.854 5.12046 184.857C5.50171 184.859 6.00545 184.858 6.64718 184.864C7.98673 184.862 9.96027 184.859 12.5125 184.924C17.6118 185.042 25.0406 185.456 34.2364 186.968C38.8321 187.705 43.8623 188.715 49.2555 189.889C54.6477 191.073 60.4073 192.371 66.4409 193.95C72.4719 195.527 78.7855 197.36 85.2124 199.728C88.4293 200.899 91.6452 202.27 94.9282 203.666C98.2053 205.069 101.528 206.493 104.89 207.93C118.326 213.728 131.005 219.636 142.158 225.827C153.317 231.999 162.912 238.449 170.49 244.454C178.089 250.447 183.675 255.934 187.349 259.858C189.177 261.83 190.569 263.384 191.475 264.464L192.53 265.678C192.771 265.95 192.9 266.086 192.908 266.082C192.917 266.074 192.81 265.927 192.584 265.641L191.585 264.39C190.711 263.282 189.35 261.701 187.544 259.699C183.923 255.72 178.367 250.161 170.778 244.101C163.208 238.033 153.601 231.512 142.422 225.293C131.25 219.055 118.547 213.114 105.099 207.314C101.736 205.873 98.4095 204.452 95.1308 203.051C91.8563 201.659 88.6094 200.279 85.3761 199.107C78.907 196.736 72.5683 194.905 66.5201 193.342C60.4701 191.778 54.7001 190.495 49.2992 189.334C43.8965 188.186 38.8534 187.203 34.2438 186.488C25.0186 185.035 17.5708 184.693 12.4757 184.658C9.9243 184.633 7.9533 184.677 6.62318 184.725L5.10932 184.789C4.76945 184.805 4.59607 184.819 4.59692 184.832" fill="#263238"/>
</g>
<path fill-rule="evenodd" clip-rule="evenodd" d="M87.3894 198.338C87.4503 198.295 87.1145 197.735 86.4531 196.758C85.7996 195.777 84.7844 194.404 83.491 192.738C80.9193 189.401 77.1336 184.965 72.9271 180.095C68.7197 175.225 65.0381 170.727 62.5493 167.341C61.2948 165.656 60.2999 164.277 59.6314 163.308C58.9559 162.346 58.5494 161.835 58.4823 161.878C58.4205 161.92 58.6999 162.513 59.2677 163.553C59.8267 164.596 60.7263 166.051 61.8996 167.803C64.2337 171.32 67.8305 175.914 72.0414 180.79C76.2084 185.577 79.9811 189.909 82.8615 193.221C84.1445 194.729 85.2313 195.998 86.1008 197.018C86.8734 197.911 87.3276 198.385 87.3894 198.338ZM49.9017 223.715C49.9281 223.739 50.4332 223.354 51.3197 222.637C52.2098 221.926 53.4937 220.889 55.1174 219.648C58.3429 217.149 62.9109 213.818 68.0869 210.321C73.2733 206.833 78.0789 203.839 81.6088 201.754C83.3688 200.701 84.8093 199.881 85.8041 199.309C86.8015 198.742 87.3443 198.41 87.3294 198.377C87.3118 198.345 86.7356 198.614 85.7083 199.128C84.6828 199.643 83.2097 200.414 81.4206 201.428C77.8327 203.437 72.9769 206.391 67.7763 209.89C62.5845 213.397 58.0384 216.786 54.8666 219.368C53.2692 220.647 52.0188 221.728 51.1736 222.488C50.3293 223.254 49.8762 223.688 49.9017 223.715ZM145.071 222.279C145.095 222.272 145.013 222.046 144.837 221.626L144.035 219.793C143.329 218.204 142.249 215.923 140.877 213.117C138.138 207.503 134.11 199.836 129.551 191.419C124.991 182.999 120.899 175.368 118.046 169.806L114.684 163.206C114.317 162.489 114.011 161.902 113.763 161.414C113.541 161.007 113.419 160.798 113.394 160.803C113.371 160.814 113.454 161.038 113.63 161.459C113.845 161.953 114.111 162.557 114.431 163.289C115.136 164.88 116.217 167.16 117.587 169.966C120.328 175.58 124.354 183.248 128.915 191.668C133.472 200.084 137.566 207.714 140.42 213.28C141.8 215.991 142.938 218.219 143.779 219.875C144.15 220.592 144.452 221.183 144.705 221.669C144.925 222.075 145.049 222.286 145.072 222.279" fill="#263238"/>
<path fill-rule="evenodd" clip-rule="evenodd" d="M80.814 248.964C80.8296 248.986 81.0614 248.902 81.489 248.723L83.3469 247.902C85.0465 247.129 87.3413 246.087 90.13 244.817C95.8618 242.213 103.827 238.712 112.639 234.855C121.455 230.996 129.387 227.416 135.045 224.691C137.876 223.327 140.152 222.202 141.704 221.393C142.416 221.013 143.004 220.703 143.481 220.449C143.884 220.226 144.09 220.095 144.075 220.073C144.059 220.052 143.828 220.136 143.396 220.314C142.9 220.536 142.286 220.809 141.54 221.138L134.757 224.219C129.031 226.825 121.061 230.328 112.245 234.186C103.434 238.041 95.5025 241.622 89.8431 244.346C87.0111 245.709 84.7364 246.834 83.1846 247.644C82.4736 248.025 81.8849 248.335 81.4056 248.589C81.0045 248.812 80.7994 248.94 80.814 248.964Z" fill="#263238"/>
</g>
</svg>
